<?xml version="1.0" standalone="no"?>
<!DOCTYPE svg PUBLIC "-//W3C//DTD SVG 20010904//EN"
 "http://www.w3.org/TR/2001/REC-SVG-20010904/DTD/svg10.dtd">
<svg version="1.0" xmlns="http://www.w3.org/2000/svg"
 width="512.000000pt" height="512.000000pt" viewBox="0 0 512.000000 512.000000"
 preserveAspectRatio="xMidYMid meet">
<metadata>
Created by potrace 1.14, written by Peter Selinger 2001-2017
</metadata>
<g transform="translate(0.000000,512.000000) scale(0.100000,-0.100000)"
fill="#000000" stroke="none">
<path d="M1027 4919 c-62 -21 -99 -52 -135 -114 -15 -26 -18 -69 -22 -315 l-5
-285 -230 -2 c-207 -1 -237 -3 -294 -23 -133 -45 -223 -135 -266 -269 -17 -51
-18 -140 -18 -1366 0 -721 3 -1328 7 -1348 20 -105 104 -222 201 -277 95 -54
116 -55 1003 -55 l812 1 21 -56 c59 -156 56 -324 -6 -474 l-15 -36 -129 0
c-111 0 -130 -2 -144 -18 -35 -38 -11 -91 41 -93 15 0 348 -1 741 -1 683 -1
715 0 728 17 18 26 16 59 -5 78 -15 14 -41 17 -146 17 l-127 0 -15 35 c-62
150 -64 318 -5 476 l21 55 817 0 c450 1 839 4 866 7 156 20 308 173 333 334
10 64 9 2594 0 2658 -17 108 -95 220 -195 279 -88 51 -138 59 -387 59 l-222 0
-1 274 c-1 245 -3 279 -19 316 -25 54 -66 95 -122 120 -44 20 -65 20 -1540 21
-1344 1 -1500 -1 -1543 -15z m3075 -137 l33 -32 3 -239 3 -238 -1581 0 -1580
0 0 224 c0 248 4 267 63 303 31 20 58 20 1529 18 l1498 -3 32 -33z m36 -914
l2 -288 -890 0 c-489 0 -890 3 -891 8 -5 48 -32 130 -65 193 -168 321 -606
386 -865 129 -75 -75 -131 -177 -150 -271 l-12 -59 -143 0 -144 0 0 290 1 290
1577 -2 1577 -3 3 -287z m-3269 -866 c0 -740 3 -1102 10 -1129 14 -51 70 -116
124 -142 l43 -21 1505 0 c962 0 1517 4 1540 10 65 18 142 99 155 163 2 12 5
514 5 1115 l1 1093 226 -2 c198 -1 234 -3 278 -20 72 -27 128 -79 163 -152
l30 -62 1 -1200 0 -1201 -2390 0 -2390 0 0 1201 1 1200 30 62 c35 73 91 125
163 152 44 17 80 19 278 20 l227 2 0 -1089z m1071 936 c189 -62 315 -238 304
-429 -4 -83 -8 -97 -40 -169 -38 -85 -49 -91 -86 -51 -16 17 -49 44 -71 59
-23 14 -44 28 -46 29 -3 2 4 16 15 31 91 125 49 300 -91 375 -53 29 -163 30
-219 3 -91 -45 -141 -126 -141 -232 0 -63 4 -77 33 -124 18 -29 31 -53 30 -54
-2 -1 -16 -8 -32 -16 -15 -8 -49 -34 -74 -57 -25 -24 -49 -43 -52 -43 -13 0
-60 97 -75 155 -39 150 3 303 112 413 58 57 149 107 224 121 54 10 162 5 209
-11z m-52 -264 c81 -52 81 -182 -1 -232 -118 -74 -257 52 -195 177 35 71 129
97 196 55z m-610 -264 c40 -192 198 -358 393 -414 222 -63 470 31 599 227 36
55 70 142 84 217 l5 25 891 0 890 1 0 -776 c0 -760 0 -776 -20 -808 -40 -65
57 -61 -1565 -61 -1628 0 -1515 -4 -1555 62 -19 31 -20 56 -20 803 0 424 2
773 5 775 2 3 67 5 143 5 l139 -1 11 -55z m632 -122 c45 -14 97 -48 133 -86
l28 -30 -33 -20 c-32 -20 -72 -37 -113 -50 -11 -3 -63 -6 -115 -6 -100 1 -182
23 -232 63 l-22 18 39 38 c46 44 113 76 170 83 22 2 42 6 44 8 5 4 58 -5 101
-18z m3037 -2022 c-9 -119 -64 -204 -167 -258 l-45 -23 -2155 -3 c-2401 -3
-2215 -8 -2300 66 -73 62 -110 145 -110 246 l0 46 2391 0 2392 0 -6 -74z
m-2037 -408 c0 -4 -2 -13 -5 -20 -46 -138 -56 -308 -24 -423 10 -38 22 -80 25
-92 l6 -23 -352 0 -352 0 7 28 c39 137 42 162 40 272 -2 92 -7 130 -27 187
-15 45 -20 74 -14 76 21 7 696 2 696 -5z"/>
<path d="M1275 4706 c-100 -45 -135 -177 -70 -262 80 -104 238 -90 297 27 72
140 -83 299 -227 235z m114 -120 c37 -40 10 -98 -46 -98 -56 0 -77 68 -32 105
29 23 51 21 78 -7z"/>
<path d="M1745 4706 c-170 -79 -111 -340 75 -332 97 4 160 65 168 161 5 62
-21 118 -70 155 -38 28 -130 37 -173 16z m117 -114 c4 -4 9 -19 13 -33 13 -52
-54 -94 -96 -60 -47 38 -8 120 50 106 14 -4 29 -9 33 -13z"/>
<path d="M2215 4704 c-159 -83 -119 -311 58 -331 114 -13 209 97 184 215 -20
102 -150 164 -242 116z m113 -114 c49 -45 12 -106 -60 -101 -24 1 -48 50 -37
78 16 44 63 55 97 23z"/>
<path d="M3756 4678 c-9 -12 -16 -35 -16 -50 0 -23 -4 -27 -31 -26 -37 1 -61
-21 -61 -58 0 -33 25 -54 64 -54 15 0 28 -6 29 -12 3 -47 8 -63 24 -74 41 -30
88 -6 90 47 1 31 5 34 39 40 45 7 59 20 59 54 0 37 -26 60 -65 57 -31 -2 -33
0 -34 32 0 19 -6 42 -13 50 -20 24 -67 20 -85 -6z"/>
<path d="M2668 4590 c-27 -22 -30 -58 -8 -80 19 -19 36 -20 400 -20 l380 0 16
25 c21 32 12 71 -19 81 -12 4 -186 8 -386 8 -311 1 -368 -1 -383 -14z"/>
<path d="M2629 3149 c-14 -14 -19 -28 -15 -42 3 -12 6 -25 6 -28 0 -21 90 -25
606 -25 538 1 563 2 583 20 26 24 27 46 1 74 l-21 22 -569 0 c-565 0 -570 0
-591 -21z"/>
<path d="M2635 2794 c-58 -20 -106 -64 -135 -120 -24 -47 -25 -57 -26 -254 -2
-223 5 -266 51 -326 31 -41 88 -79 133 -89 18 -4 273 -7 565 -7 605 0 594 -1
669 73 69 69 76 101 73 349 -2 230 -6 248 -73 317 -72 74 -66 73 -676 72 -443
0 -548 -3 -581 -15z m1142 -113 c18 -7 42 -29 54 -48 20 -32 21 -48 22 -226 0
-210 -6 -239 -60 -274 -25 -17 -71 -18 -563 -21 -597 -3 -583 -4 -624 66 -17
30 -19 55 -19 222 0 130 3 197 12 218 14 33 48 60 88 71 14 4 257 6 541 6 411
0 524 -3 549 -14z"/>
<path d="M1171 2749 c-27 -25 -27 -44 2 -72 l22 -23 511 0 c554 1 544 0 544
56 0 61 14 59 -547 59 -494 0 -511 -1 -532 -20z"/>
<path d="M1170 2440 c-25 -25 -25 -41 -2 -71 l19 -22 516 0 c558 0 547 -1 547
54 0 61 19 59 -546 59 -501 0 -515 -1 -534 -20z"/>
<path d="M1203 2152 c-44 -6 -64 -61 -33 -92 19 -19 38 -20 533 -20 485 0 515
1 530 18 21 23 22 66 1 82 -12 11 -122 14 -512 14 -273 1 -507 0 -519 -2z"/>
</g>
</svg>
